<svg xmlns="http://www.w3.org/2000/svg" xmlns:xlink="http://www.w3.org/1999/xlink" width="336" zoomAndPan="magnify" viewBox="0 0 252 143.999998" height="192" preserveAspectRatio="xMidYMid meet" version="1.0"><defs><filter x="0%" y="0%" width="100%" height="100%" id="a6a205b870"><feColorMatrix values="0 0 0 0 1 0 0 0 0 1 0 0 0 0 1 0 0 0 1 0" color-interpolation-filters="sRGB"/></filter><g/><mask id="3c34d49ca3"><g filter="url(#a6a205b870)"><rect x="-25.2" width="302.4" fill="#000000" y="-14.4" height="172.799997" fill-opacity="0.7"/></g></mask><clipPath id="b4210c8dfc"><path d="M 0.601562 0.167969 L 101.101562 0.167969 L 101.101562 49.667969 L 0.601562 49.667969 Z M 0.601562 0.167969 " clip-rule="nonzero"/></clipPath><clipPath id="66950ce5f1"><rect x="0" width="102" y="0" height="50"/></clipPath></defs><g mask="url(#3c34d49ca3)"><g transform="matrix(1, 0, 0, 1, 11, 47)"><g clip-path="url(#66950ce5f1)"><g clip-path="url(#b4210c8dfc)"><path fill="#db5275" d="M 101.011719 0.464844 C 100.699219 0.171875 100.523438 0.503906 100.335938 0.699219 C 100.246094 0.792969 100.167969 0.890625 100.082031 0.992188 C 98.929688 2.367188 97.804688 3.765625 96.617188 5.113281 C 93.757812 8.351562 90.484375 11.050781 86.476562 12.773438 C 80.027344 15.550781 73.332031 17.558594 66.484375 19.066406 C 60.464844 20.390625 54.671875 22.285156 49.257812 25.265625 C 48.710938 25.566406 48.171875 25.867188 47.601562 26.179688 C 47.359375 24.992188 46.921875 24.074219 46.242188 23.289062 C 44.015625 20.710938 40.613281 20.070312 37.300781 21.617188 C 34.984375 22.699219 33.148438 24.410156 31.414062 26.238281 C 30.125 27.59375 28.933594 29.050781 27.554688 30.320312 C 26.324219 31.449219 25.003906 32.457031 23.402344 33.019531 C 22.875 33.203125 22.34375 33.441406 21.710938 33.359375 C 21.832031 33.042969 21.9375 32.78125 22.027344 32.519531 C 22.425781 31.328125 22.816406 30.136719 22.699219 28.855469 C 22.566406 27.449219 21.550781 26.828125 20.25 27.390625 C 18.910156 27.96875 18.027344 28.980469 17.605469 30.386719 C 17.445312 30.914062 17.40625 31.425781 17.578125 31.964844 C 18.046875 33.433594 19.21875 33.875 20.644531 34.09375 C 19.761719 36.089844 18.734375 37.941406 17.523438 39.683594 C 15.402344 42.742188 13.003906 45.53125 9.792969 47.496094 C 8.222656 48.453125 6.542969 49.179688 4.644531 48.96875 C 3.273438 48.820312 1.949219 48.472656 1.472656 46.898438 C 1.40625 46.679688 1.257812 46.617188 1.058594 46.660156 C 0.785156 46.722656 0.6875 46.960938 0.71875 47.1875 C 0.777344 47.660156 1.039062 48.046875 1.382812 48.371094 C 2.320312 49.242188 3.441406 49.710938 4.710938 49.753906 C 7.21875 49.835938 9.351562 48.800781 11.285156 47.355469 C 15.34375 44.316406 18.304688 40.355469 20.53125 35.84375 C 21.070312 34.753906 21.53125 33.757812 22.964844 33.828125 C 23.007812 33.828125 23.054688 33.785156 23.101562 33.769531 C 25.738281 32.988281 27.660156 31.195312 29.476562 29.261719 C 30.832031 27.820312 32.101562 26.300781 33.570312 24.976562 C 35.433594 23.304688 37.410156 21.847656 39.996094 21.472656 C 43.082031 21.023438 46.214844 23.027344 46.9375 25.863281 C 47.078125 26.414062 46.925781 26.625 46.507812 26.890625 C 45.449219 27.5625 44.398438 28.253906 43.644531 29.300781 C 43.292969 29.785156 42.914062 30.320312 43.351562 30.894531 C 43.816406 31.5 44.492188 31.328125 45.117188 31.128906 C 45.589844 30.980469 45.988281 30.707031 46.335938 30.359375 C 47.167969 29.527344 47.570312 28.492188 47.65625 27.34375 C 47.683594 26.953125 47.816406 26.773438 48.140625 26.589844 C 52.847656 23.894531 57.789062 21.765625 63.070312 20.484375 C 68.722656 19.109375 74.386719 17.792969 79.882812 15.855469 C 83.359375 14.628906 86.84375 13.433594 90.007812 11.488281 C 93.753906 9.183594 96.652344 5.964844 99.503906 2.695312 C 99.960938 2.171875 100.410156 1.648438 100.855469 1.117188 C 101.011719 0.933594 101.292969 0.726562 101.019531 0.472656 Z M 21.050781 33.183594 C 20.960938 33.402344 20.828125 33.40625 20.640625 33.417969 C 18.898438 33.539062 17.675781 31.929688 18.292969 30.300781 C 18.628906 29.414062 19.230469 28.722656 20.03125 28.214844 C 20.488281 27.925781 21.015625 27.65625 21.539062 27.945312 C 22.066406 28.234375 22.0625 28.832031 22.082031 29.472656 C 21.972656 30.710938 21.554688 31.957031 21.050781 33.183594 Z M 44.910156 30.582031 C 44.5625 30.695312 44.09375 30.878906 43.847656 30.523438 C 43.621094 30.199219 43.949219 29.855469 44.167969 29.574219 C 44.773438 28.800781 46.085938 27.769531 47.023438 27.316406 C 47.007812 28.742188 46.082031 30.203125 44.914062 30.582031 Z M 44.910156 30.582031 " fill-opacity="1" fill-rule="nonzero"/></g></g></g></g><g fill="#db5275" fill-opacity="1"><g transform="translate(9.640462, 79.349997)"><g><path d="M 0.75 0 L 0.75 -7.703125 L 3.59375 -7.703125 C 4.207031 -7.703125 4.71875 -7.597656 5.125 -7.390625 C 5.53125 -7.179688 5.832031 -6.894531 6.03125 -6.53125 C 6.226562 -6.175781 6.328125 -5.773438 6.328125 -5.328125 C 6.328125 -4.910156 6.226562 -4.519531 6.03125 -4.15625 C 5.84375 -3.800781 5.546875 -3.515625 5.140625 -3.296875 C 4.742188 -3.085938 4.226562 -2.984375 3.59375 -2.984375 L 2.15625 -2.984375 L 2.15625 0 Z M 2.15625 -4.125 L 3.515625 -4.125 C 4.003906 -4.125 4.351562 -4.234375 4.5625 -4.453125 C 4.78125 -4.671875 4.890625 -4.960938 4.890625 -5.328125 C 4.890625 -5.710938 4.78125 -6.015625 4.5625 -6.234375 C 4.351562 -6.453125 4.003906 -6.5625 3.515625 -6.5625 L 2.15625 -6.5625 Z M 2.15625 -4.125 "/></g></g></g><g fill="#db5275" fill-opacity="1"><g transform="translate(18.699742, 79.349997)"><g><path d="M 4.359375 0.125 C 3.585938 0.125 2.910156 -0.0390625 2.328125 -0.375 C 1.753906 -0.707031 1.304688 -1.171875 0.984375 -1.765625 C 0.660156 -2.367188 0.5 -3.0625 0.5 -3.84375 C 0.5 -4.632812 0.660156 -5.328125 0.984375 -5.921875 C 1.304688 -6.515625 1.753906 -6.976562 2.328125 -7.3125 C 2.910156 -7.65625 3.585938 -7.828125 4.359375 -7.828125 C 5.117188 -7.828125 5.785156 -7.65625 6.359375 -7.3125 C 6.941406 -6.976562 7.394531 -6.515625 7.71875 -5.921875 C 8.039062 -5.328125 8.203125 -4.632812 8.203125 -3.84375 C 8.203125 -3.0625 8.039062 -2.367188 7.71875 -1.765625 C 7.394531 -1.171875 6.941406 -0.707031 6.359375 -0.375 C 5.785156 -0.0390625 5.117188 0.125 4.359375 0.125 Z M 4.359375 -1.140625 C 5.085938 -1.140625 5.671875 -1.378906 6.109375 -1.859375 C 6.546875 -2.335938 6.765625 -3 6.765625 -3.84375 C 6.765625 -4.6875 6.546875 -5.347656 6.109375 -5.828125 C 5.671875 -6.316406 5.085938 -6.5625 4.359375 -6.5625 C 3.617188 -6.5625 3.03125 -6.316406 2.59375 -5.828125 C 2.15625 -5.347656 1.9375 -4.6875 1.9375 -3.84375 C 1.9375 -3 2.15625 -2.335938 2.59375 -1.859375 C 3.03125 -1.378906 3.617188 -1.140625 4.359375 -1.140625 Z M 4.359375 -1.140625 "/></g></g></g><g fill="#db5275" fill-opacity="1"><g transform="translate(29.781593, 79.349997)"><g><path d="M 0.75 0 L 0.75 -7.703125 L 3.578125 -7.703125 C 4.191406 -7.703125 4.695312 -7.597656 5.09375 -7.390625 C 5.5 -7.179688 5.800781 -6.894531 6 -6.53125 C 6.195312 -6.175781 6.296875 -5.785156 6.296875 -5.359375 C 6.296875 -4.890625 6.171875 -4.457031 5.921875 -4.0625 C 5.679688 -3.675781 5.300781 -3.394531 4.78125 -3.21875 L 6.375 0 L 4.75 0 L 3.328125 -3.03125 L 2.15625 -3.03125 L 2.15625 0 Z M 2.15625 -4.0625 L 3.484375 -4.0625 C 3.953125 -4.0625 4.296875 -4.175781 4.515625 -4.40625 C 4.734375 -4.632812 4.84375 -4.9375 4.84375 -5.3125 C 4.84375 -5.675781 4.734375 -5.96875 4.515625 -6.1875 C 4.304688 -6.40625 3.957031 -6.515625 3.46875 -6.515625 L 2.15625 -6.515625 Z M 2.15625 -4.0625 "/></g></g></g><g fill="#db5275" fill-opacity="1"><g transform="translate(39.016746, 79.349997)"><g><path d="M 2.546875 0 L 2.546875 -6.5625 L 0.296875 -6.5625 L 0.296875 -7.703125 L 6.203125 -7.703125 L 6.203125 -6.5625 L 3.953125 -6.5625 L 3.953125 0 Z M 2.546875 0 "/></g></g></g><g fill="#db5275" fill-opacity="1"><g transform="translate(47.900153, 79.349997)"><g><path d="M 0.75 0 L 0.75 -7.703125 L 5.71875 -7.703125 L 5.71875 -6.5625 L 2.15625 -6.5625 L 2.15625 -4.40625 L 5.03125 -4.40625 L 5.03125 -3.296875 L 2.15625 -3.296875 L 2.15625 0 Z M 0.75 0 "/></g></g></g><g fill="#db5275" fill-opacity="1"><g transform="translate(56.343866, 79.349997)"><g><path d="M 4.359375 0.125 C 3.585938 0.125 2.910156 -0.0390625 2.328125 -0.375 C 1.753906 -0.707031 1.304688 -1.171875 0.984375 -1.765625 C 0.660156 -2.367188 0.5 -3.0625 0.5 -3.84375 C 0.5 -4.632812 0.660156 -5.328125 0.984375 -5.921875 C 1.304688 -6.515625 1.753906 -6.976562 2.328125 -7.3125 C 2.910156 -7.65625 3.585938 -7.828125 4.359375 -7.828125 C 5.117188 -7.828125 5.785156 -7.65625 6.359375 -7.3125 C 6.941406 -6.976562 7.394531 -6.515625 7.71875 -5.921875 C 8.039062 -5.328125 8.203125 -4.632812 8.203125 -3.84375 C 8.203125 -3.0625 8.039062 -2.367188 7.71875 -1.765625 C 7.394531 -1.171875 6.941406 -0.707031 6.359375 -0.375 C 5.785156 -0.0390625 5.117188 0.125 4.359375 0.125 Z M 4.359375 -1.140625 C 5.085938 -1.140625 5.671875 -1.378906 6.109375 -1.859375 C 6.546875 -2.335938 6.765625 -3 6.765625 -3.84375 C 6.765625 -4.6875 6.546875 -5.347656 6.109375 -5.828125 C 5.671875 -6.316406 5.085938 -6.5625 4.359375 -6.5625 C 3.617188 -6.5625 3.03125 -6.316406 2.59375 -5.828125 C 2.15625 -5.347656 1.9375 -4.6875 1.9375 -3.84375 C 1.9375 -3 2.15625 -2.335938 2.59375 -1.859375 C 3.03125 -1.378906 3.617188 -1.140625 4.359375 -1.140625 Z M 4.359375 -1.140625 "/></g></g></g><g fill="#db5275" fill-opacity="1"><g transform="translate(67.425718, 79.349997)"><g><path d="M 0.75 0 L 0.75 -7.703125 L 2.15625 -7.703125 L 2.15625 -1.09375 L 5.5625 -1.09375 L 5.5625 0 Z M 0.75 0 "/></g></g></g><g fill="#db5275" fill-opacity="1"><g transform="translate(75.869431, 79.349997)"><g><path d="M 0.75 0 L 0.75 -7.703125 L 2.15625 -7.703125 L 2.15625 0 Z M 0.75 0 "/></g></g></g><g fill="#db5275" fill-opacity="1"><g transform="translate(81.158375, 79.349997)"><g><path d="M 4.359375 0.125 C 3.585938 0.125 2.910156 -0.0390625 2.328125 -0.375 C 1.753906 -0.707031 1.304688 -1.171875 0.984375 -1.765625 C 0.660156 -2.367188 0.5 -3.0625 0.5 -3.84375 C 0.5 -4.632812 0.660156 -5.328125 0.984375 -5.921875 C 1.304688 -6.515625 1.753906 -6.976562 2.328125 -7.3125 C 2.910156 -7.65625 3.585938 -7.828125 4.359375 -7.828125 C 5.117188 -7.828125 5.785156 -7.65625 6.359375 -7.3125 C 6.941406 -6.976562 7.394531 -6.515625 7.71875 -5.921875 C 8.039062 -5.328125 8.203125 -4.632812 8.203125 -3.84375 C 8.203125 -3.0625 8.039062 -2.367188 7.71875 -1.765625 C 7.394531 -1.171875 6.941406 -0.707031 6.359375 -0.375 C 5.785156 -0.0390625 5.117188 0.125 4.359375 0.125 Z M 4.359375 -1.140625 C 5.085938 -1.140625 5.671875 -1.378906 6.109375 -1.859375 C 6.546875 -2.335938 6.765625 -3 6.765625 -3.84375 C 6.765625 -4.6875 6.546875 -5.347656 6.109375 -5.828125 C 5.671875 -6.316406 5.085938 -6.5625 4.359375 -6.5625 C 3.617188 -6.5625 3.03125 -6.316406 2.59375 -5.828125 C 2.15625 -5.347656 1.9375 -4.6875 1.9375 -3.84375 C 1.9375 -3 2.15625 -2.335938 2.59375 -1.859375 C 3.03125 -1.378906 3.617188 -1.140625 4.359375 -1.140625 Z M 4.359375 -1.140625 "/></g></g></g></svg>