<?xml version="1.0" encoding="UTF-8"?>
<svg version="1.1" xmlns="http://www.w3.org/2000/svg" width="430" height="300">
<path d="M0 0 C141.9 0 283.8 0 430 0 C430 99 430 198 430 300 C288.1 300 146.2 300 0 300 C0 201 0 102 0 0 Z " fill="#ECECEC" transform="translate(0,0)"/>
<path d="M0 0 C39.27 0 78.54 0 119 0 C119 84.48 119 168.96 119 256 C80.06 256 41.12 256 1 256 C-0.1589499 253.68210019 -0.12431865 252.36686469 -0.12304783 249.78709221 C-0.12503888 248.89832764 -0.12702993 248.00956306 -0.12908131 247.09386623 C-0.12616847 246.11139104 -0.12325563 245.12891586 -0.12025452 244.1166687 C-0.12110894 243.07773755 -0.12196337 242.0388064 -0.12284368 240.96839249 C-0.12449934 237.46442547 -0.11897569 233.96050563 -0.11352539 230.45654297 C-0.11324351 227.95381674 -0.11340127 225.45109043 -0.1139679 222.94836426 C-0.11419609 217.54849516 -0.11134774 212.14864143 -0.10573006 206.74877548 C-0.09761304 198.94141796 -0.09499963 191.13406628 -0.09374207 183.32670499 C-0.09155187 170.66067112 -0.08489264 157.99464367 -0.07543945 145.32861328 C-0.06626451 133.02262402 -0.05919554 120.71663651 -0.05493164 108.41064453 C-0.05466364 107.64473476 -0.05439565 106.87882499 -0.05411953 106.08970582 C-0.05204018 100.10004714 -0.05008323 94.11038842 -0.04816496 88.12072968 C-0.03872633 58.74714722 -0.0186092 29.37358085 0 0 Z " fill="#FEFEFE" transform="translate(19,28)"/>
<path d="M0 0 C38.94 0 77.88 0 118 0 C118 84.48 118 168.96 118 256 C79.06 256 40.12 256 0 256 C0 171.52 0 87.04 0 0 Z " fill="#FDFDFD" transform="translate(295,28)"/>
<path d="M0 0 C15.23763064 -0.02332961 30.47526046 -0.04097948 45.71290493 -0.05181217 C52.78753187 -0.056975 59.86214774 -0.06401744 66.93676758 -0.07543945 C73.75778878 -0.08644681 80.57879844 -0.09227618 87.39982796 -0.09487724 C90.00866948 -0.09673205 92.61751033 -0.1003537 95.22634697 -0.10573006 C98.86632552 -0.11293643 102.50625575 -0.11399111 106.14624023 -0.11352539 C107.23668137 -0.11712067 108.3271225 -0.12071594 109.4506073 -0.12442017 C110.43643799 -0.1230455 111.42226868 -0.12167084 112.43797302 -0.12025452 C113.73078768 -0.12163721 113.73078768 -0.12163721 115.04971981 -0.12304783 C117 0 117 0 118 1 C118.09522418 3.86091818 118.12553326 6.69763621 118.11352539 9.55883789 C118.11367142 10.45631241 118.11381744 11.35378693 118.1139679 12.27845764 C118.11326842 15.25988134 118.10547441 18.2412434 118.09765625 21.22265625 C118.09579219 23.28388942 118.09436823 25.34512304 118.09336853 27.40635681 C118.08954237 32.8430401 118.07971126 38.27969686 118.06866455 43.71636963 C118.05845253 49.25947714 118.05387136 54.80258892 118.04882812 60.34570312 C118.03808908 71.23048043 118.02101149 82.11523802 118 93 C117.01 93 116.02 93 115 93 C115.99 94.485 115.99 94.485 117 96 C117.24609566 98.85230541 117.24609566 98.85230541 117.24050903 102.39701843 C117.24221788 103.04886653 117.24392673 103.70071463 117.24568737 104.3723157 C117.24898628 106.56041478 117.2379722 108.74820839 117.22705078 110.9362793 C117.22648675 112.50320427 117.22680306 114.07012978 117.22793579 115.63705444 C117.22851063 119.89505158 117.21673508 124.1529365 117.20278788 128.41090751 C117.19030241 132.85920378 117.18911174 137.30750251 117.18673706 141.7558136 C117.18051586 150.18119718 117.1640964 158.60652898 117.14403808 167.03188974 C117.11752357 178.41575229 117.10671161 189.79962896 117.09503365 201.1835146 C117.07621625 219.12238186 117.03637484 237.06113985 117 255 C78.39 255 39.78 255 0 255 C-0.04030303 215.53885139 -0.04030303 215.53885139 -0.04882812 199.03125 C-0.05476694 187.62304231 -0.06175701 176.214842 -0.07543945 164.80664062 C-0.08539856 156.49894733 -0.09185636 148.19126 -0.09408849 139.8835609 C-0.09539351 135.48365843 -0.09846621 131.08377304 -0.10573006 126.68387604 C-0.11250958 122.54386392 -0.114613 118.40387594 -0.11310768 114.2638588 C-0.11338314 112.74328353 -0.11537681 111.22270747 -0.11920547 109.70213699 C-0.12417288 107.62783124 -0.122987 105.5536169 -0.12025452 103.47930908 C-0.12117631 102.31784992 -0.1220981 101.15639076 -0.12304783 99.95973587 C-0.01867162 97.44911844 0.26276048 95.38774996 1 93 C0.01 93.495 0.01 93.495 -1 94 C-1.02319512 82.77750811 -1.04095164 71.55502195 -1.05181217 60.33251095 C-1.05702531 55.12116078 -1.06409445 49.90982704 -1.07543945 44.69848633 C-1.0863241 39.66698101 -1.09228866 34.63549148 -1.09487724 29.6039753 C-1.09672144 27.68669957 -1.10032267 25.76942468 -1.10573006 23.85215569 C-1.11301451 21.16175359 -1.11398782 18.47141627 -1.11352539 15.78100586 C-1.11712067 14.99265854 -1.12071594 14.20431122 -1.12442017 13.39207458 C-1.115955 8.82497631 -0.75264174 4.50632098 0 0 Z " fill="#FAFAFB" transform="translate(158,28)"/>
<path d="M0 0 C1.29114967 -0.0131424 1.29114967 -0.0131424 2.60838318 -0.02655029 C5.44712069 -0.04851546 8.28429417 -0.03400209 11.12304688 -0.01708984 C13.09932758 -0.02045881 15.07560626 -0.02531211 17.05187988 -0.03158569 C21.19120027 -0.03895311 25.32998072 -0.0282556 29.46923828 -0.00488281 C34.77250394 0.02360475 40.07450444 0.0072001 45.37772369 -0.02274513 C49.45788082 -0.04082155 53.53773847 -0.03505847 57.61790466 -0.02210617 C59.57311656 -0.01877312 61.52835573 -0.02285569 63.48353577 -0.03450394 C66.21761988 -0.04721831 68.94966161 -0.02782823 71.68359375 0 C72.48997787 -0.01012115 73.296362 -0.02024231 74.12718201 -0.03067017 C77.78557322 0.03824046 80.17423081 0.54925607 83.34547424 2.39857483 C86.47914303 7.49765187 86.01314035 12.39702609 85.94116211 18.26831055 C85.94510483 19.55008682 85.94904755 20.8318631 85.95310974 22.15248108 C85.96307341 25.66091517 85.94193407 29.16853964 85.9146297 32.67685628 C85.89077433 36.35050833 85.89374445 40.02414502 85.89332581 43.69786072 C85.88869993 49.8656889 85.86507217 56.03320808 85.82885742 62.20092773 C85.78710662 69.33044206 85.76954137 76.45967828 85.76623768 83.58930784 C85.76263727 91.18288849 85.74376284 98.77636918 85.7191174 106.36990809 C85.71289115 108.55694478 85.70925337 110.74397386 85.7060833 112.93101692 C85.69908296 117.00580951 85.67468969 121.08031691 85.64819336 125.1550293 C85.64752869 126.36709045 85.64686401 127.57915161 85.6461792 128.82794189 C85.63620407 129.93688309 85.62622894 131.04582428 85.61595154 132.18836975 C85.61130103 133.15160188 85.60665052 134.114834 85.60185909 135.10725498 C85.32926583 137.76934844 84.75095812 139.38899794 83.34179688 141.64697266 C79.73760206 144.41219609 75.41061195 143.92822243 71.07250977 143.90576172 C70.24115005 143.90926636 69.40979034 143.912771 68.55323792 143.91638184 C65.8068912 143.92517936 63.06080243 143.91935644 60.31445312 143.91259766 C58.40400646 143.913945 56.49356012 143.91588612 54.58311462 143.918396 C50.57922094 143.92134468 46.57541651 143.91705826 42.5715332 143.90771484 C37.44235905 143.8963282 32.31339439 143.90287642 27.18422794 143.91485977 C23.23882981 143.92209182 19.29348122 143.91978412 15.34808159 143.91460419 C13.45706597 143.91327101 11.56604583 143.91490377 9.67503548 143.91956329 C7.03006226 143.92464972 4.38542663 143.91688818 1.74047852 143.90576172 C0.96057556 143.90981018 0.18067261 143.91385864 -0.62286377 143.91802979 C-4.70431695 143.88626817 -8.09507312 143.74035781 -11.65820312 141.64697266 C-13.69539995 138.4727426 -13.91435765 135.91663314 -13.93235779 132.18836975 C-13.94233292 131.07942856 -13.95230804 129.97048737 -13.96258545 128.82794189 C-13.96325012 127.61588074 -13.96391479 126.40381958 -13.96459961 125.1550293 C-13.97292313 123.87500534 -13.98124664 122.59498138 -13.98982239 121.27616882 C-14.01174969 117.76790861 -14.0205636 114.25973554 -14.02564883 110.75141454 C-14.0292938 108.55897633 -14.03553452 106.36656091 -14.04265022 104.17413139 C-14.06713635 96.52387363 -14.08019528 88.87368362 -14.08374023 81.22338867 C-14.08737727 74.09435026 -14.11728631 66.9657419 -14.15914482 59.83683497 C-14.1938371 53.7135696 -14.20928847 47.59044687 -14.20998627 41.46708387 C-14.21077931 37.81095047 -14.21952993 34.15525548 -14.24798393 30.49922371 C-14.27900804 26.42194361 -14.2701103 22.34568933 -14.25756836 18.26831055 C-14.27981979 16.45325516 -14.27981979 16.45325516 -14.30252075 14.60153198 C-14.2320814 6.58078211 -14.2320814 6.58078211 -11.66188049 2.39857483 C-7.7477494 0.11603923 -4.41060283 -0.05535872 0 0 Z " fill="#FAFAFA" transform="translate(42.658203125,70.35302734375)"/>
<path d="M0 0 C15.23763064 -0.02332961 30.47526046 -0.04097948 45.71290493 -0.05181217 C52.78753187 -0.056975 59.86214774 -0.06401744 66.93676758 -0.07543945 C73.75778878 -0.08644681 80.57879844 -0.09227618 87.39982796 -0.09487724 C90.00866948 -0.09673205 92.61751033 -0.1003537 95.22634697 -0.10573006 C98.86632552 -0.11293643 102.50625575 -0.11399111 106.14624023 -0.11352539 C107.23668137 -0.11712067 108.3271225 -0.12071594 109.4506073 -0.12442017 C110.43643799 -0.1230455 111.42226868 -0.12167084 112.43797302 -0.12025452 C113.73078768 -0.12163721 113.73078768 -0.12163721 115.04971981 -0.12304783 C117 0 117 0 118 1 C118.09522418 3.86091818 118.12553326 6.69763621 118.11352539 9.55883789 C118.11367142 10.45631241 118.11381744 11.35378693 118.1139679 12.27845764 C118.11326842 15.25988134 118.10547441 18.2412434 118.09765625 21.22265625 C118.09579219 23.28388942 118.09436823 25.34512304 118.09336853 27.40635681 C118.08954237 32.8430401 118.07971126 38.27969686 118.06866455 43.71636963 C118.05845253 49.25947714 118.05387136 54.80258892 118.04882812 60.34570312 C118.03808908 71.23048043 118.02101149 82.11523802 118 93 C117.22466919 92.67566483 116.44933838 92.35132965 115.6505127 92.01716614 C110.89379254 90.69177021 106.50611306 90.71278438 101.59179688 90.7253418 C100.55692642 90.72023087 99.52205597 90.71511993 98.45582581 90.70985413 C95.04340798 90.6959818 91.63119262 90.69691293 88.21875 90.69921875 C85.84273199 90.695331 83.46671466 90.69099617 81.09069824 90.68623352 C76.11431625 90.67877673 71.13800522 90.67905905 66.16162109 90.68432617 C59.7860074 90.69012505 53.41068382 90.67317681 47.0351181 90.6499815 C42.12976383 90.63524868 37.22447953 90.63437177 32.31910706 90.63749123 C29.96838302 90.63697796 27.61765508 90.63173914 25.26695251 90.62167931 C21.9805108 90.60933907 18.69463581 90.61609215 15.40820312 90.62768555 C14.43867203 90.62004181 13.46914093 90.61239807 12.4702301 90.60452271 C7.20333397 90.64557616 3.59314968 91.11305377 -1 94 C-1.02319512 82.77750811 -1.04095164 71.55502195 -1.05181217 60.33251095 C-1.05702531 55.12116078 -1.06409445 49.90982704 -1.07543945 44.69848633 C-1.0863241 39.66698101 -1.09228866 34.63549148 -1.09487724 29.6039753 C-1.09672144 27.68669957 -1.10032267 25.76942468 -1.10573006 23.85215569 C-1.11301451 21.16175359 -1.11398782 18.47141627 -1.11352539 15.78100586 C-1.11712067 14.99265854 -1.12071594 14.20431122 -1.12442017 13.39207458 C-1.115955 8.82497631 -0.75264174 4.50632098 0 0 Z " fill="#FEFEFE" transform="translate(158,28)"/>
<path d="M0 0 C1.31257027 -0.005476 1.31257027 -0.005476 2.6516571 -0.01106262 C5.54783454 -0.01917738 8.44345417 -0.00555141 11.33959961 0.0090332 C13.34834289 0.00955165 15.35708669 0.00903454 17.36582947 0.00752258 C21.5766456 0.00761235 25.78727042 0.01805081 29.99804688 0.03613281 C35.40444235 0.05883464 40.81055853 0.05936187 46.21698856 0.05261517 C50.36472572 0.04927935 54.5123988 0.05589771 58.66012383 0.0657444 C60.65409447 0.06960229 62.64807223 0.07074219 64.64204597 0.06915855 C67.42426347 0.0687891 70.20611809 0.08137372 72.98828125 0.09765625 C73.81794403 0.09517883 74.64760681 0.09270142 75.50241089 0.09014893 C81.20070108 0.14357218 81.20070108 0.14357218 83.42944336 2.37231445 C83.69013977 4.26304626 83.69013977 4.26304626 83.70410156 6.59082031 C83.71363358 7.46189926 83.72316559 8.33297821 83.73298645 9.23045349 C83.73207504 10.17316605 83.73116364 11.1158786 83.73022461 12.0871582 C83.73450974 13.05383926 83.73879486 14.02052032 83.74320984 15.01649475 C83.74895948 17.06339738 83.74944875 19.11032044 83.74511719 21.15722656 C83.74195955 24.29372958 83.76540058 27.42928769 83.79077148 30.56567383 C83.79304459 32.55200076 83.79374792 34.53833024 83.79272461 36.5246582 C83.80193436 37.46534653 83.8111441 38.40603485 83.82063293 39.37522888 C83.81440414 40.24945999 83.80817535 41.1236911 83.80175781 42.02441406 C83.80238724 42.79337509 83.80301666 43.56233612 83.80366516 44.354599 C83.42944336 46.37231445 83.42944336 46.37231445 82.43510437 48.11979675 C79.18130167 50.15176799 75.68700838 49.78816147 71.96655273 49.76049805 C71.10286575 49.765755 70.23917877 49.77101196 69.34931946 49.77642822 C66.49042755 49.78964703 63.63209107 49.78088351 60.77319336 49.77075195 C58.78926486 49.77277215 56.80533708 49.77568313 54.82141113 49.77944946 C50.66187475 49.78387537 46.50253153 49.77743316 42.34301758 49.76342773 C37.00614803 49.74633575 31.66973105 49.7561755 26.33287811 49.77414513 C22.23570331 49.78497575 18.13863614 49.78153993 14.04145813 49.77376175 C12.07342984 49.77175775 10.10539183 49.77422601 8.13737488 49.78120041 C5.38876385 49.78880299 2.64088998 49.77722754 -0.10766602 49.76049805 C-1.33274117 49.76960709 -1.33274117 49.76960709 -2.58256531 49.77890015 C-8.02112093 49.7174463 -8.02112093 49.7174463 -10.57522583 48.11306763 C-11.80173275 45.96800612 -11.95086372 44.60111847 -11.95874023 42.13208008 C-11.96819672 41.28109741 -11.9776532 40.43011475 -11.98739624 39.55334473 C-11.98132355 38.63766724 -11.97525085 37.72198975 -11.96899414 36.77856445 C-11.97186432 35.83549438 -11.9747345 34.89242432 -11.97769165 33.92077637 C-11.9797331 31.92691447 -11.97419757 29.93303257 -11.96166992 27.93920898 C-11.94561753 24.88390401 -11.96151597 21.82992194 -11.98071289 18.7746582 C-11.97873047 16.83845736 -11.97488683 14.90225734 -11.96899414 12.96606445 C-11.97506683 12.05038696 -11.98113953 11.13470947 -11.98739624 10.19128418 C-11.97793976 9.34030151 -11.96848328 8.48931885 -11.95874023 7.61254883 C-11.95635345 6.8643689 -11.95396667 6.11618896 -11.95150757 5.34533691 C-10.76377809 -0.80615601 -5.08316226 -0.04694605 0 0 Z " fill="#FEFEFE" transform="translate(180.570556640625,190.627685546875)"/>
<path d="M0 0 C1.36408241 -0.01051392 1.36408241 -0.01051392 2.75572205 -0.02124023 C5.76201917 -0.0388461 8.76737492 -0.02718718 11.77368164 -0.01367188 C13.86349162 -0.01636627 15.95330039 -0.02024826 18.04310608 -0.02526855 C22.42371553 -0.03116732 26.80399877 -0.02258917 31.18457031 -0.00390625 C36.79820991 0.0188692 42.41108397 0.00577122 48.0246954 -0.01819611 C52.34072122 -0.03265577 56.65656582 -0.02804702 60.97259712 -0.01768494 C63.04224297 -0.01501739 65.1119053 -0.01828836 67.18153191 -0.02760315 C70.07589102 -0.03776972 72.96901412 -0.02226519 75.86328125 0 C76.71799011 -0.00809692 77.57269897 -0.01619385 78.45330811 -0.02453613 C82.45637149 0.03247197 84.52965897 0.2342737 88.02565002 2.35656738 C90.69204424 5.28047362 90.66619824 7.10575565 90.62133789 11.01757812 C90.64067383 12.70367187 90.64067383 12.70367187 90.66040039 14.42382812 C89.99633789 17.51757812 89.99633789 17.51757812 88.02565002 19.67759705 C83.88464922 22.19280934 80.62126835 22.08735361 75.86328125 22.05102539 C74.49657036 22.06394875 74.49657036 22.06394875 73.10224915 22.07713318 C70.09660274 22.09979905 67.09188803 22.09305416 64.08618164 22.08398438 C61.99540428 22.08921896 59.90462929 22.09549482 57.81385803 22.10276794 C53.43503698 22.11317276 49.0565409 22.10860828 44.67773438 22.09399414 C39.06278998 22.07678943 33.44886725 22.10032242 27.83403683 22.13548374 C23.51804304 22.15742674 19.20229501 22.15602403 14.88626289 22.14771843 C12.81578003 22.14689754 10.74527938 22.15378715 8.67484856 22.16848946 C5.78258969 22.18588185 2.89218377 22.1714381 0 22.14868164 C-0.85673309 22.16037384 -1.71346619 22.17206604 -2.59616089 22.18411255 C-8.38711134 22.09126137 -8.38711134 22.09126137 -11.53318787 19.16392517 C-13.27154544 16.03548042 -13.53971826 14.02013046 -13.50366211 10.45507812 C-13.51913086 8.92173828 -13.51913086 8.92173828 -13.53491211 7.35742188 C-12.10810146 -0.26972037 -6.47074836 -0.06115458 0 0 Z " fill="#142874" transform="translate(316.003662109375,252.482421875)"/>
<path d="M0 0 C2.31 0 4.62 0 7 0 C7 99 7 198 7 300 C4.69 300 2.38 300 0 300 C0 201 0 102 0 0 Z " fill="#000000" transform="translate(423,0)"/>
<path d="M0 0 C2.31 0 4.62 0 7 0 C7 99 7 198 7 300 C4.69 300 2.38 300 0 300 C0 201 0 102 0 0 Z " fill="#000000" transform="translate(0,0)"/>
<path d="M0 0 C0.86222672 -0.00700928 1.72445343 -0.01401855 2.61280823 -0.02124023 C5.46160125 -0.03883876 8.30940008 -0.027191 11.15820312 -0.01367188 C13.1383076 -0.01636626 15.11841079 -0.02024823 17.09851074 -0.02526855 C21.24793091 -0.03116612 25.3970066 -0.02259225 29.54638672 -0.00390625 C34.86643645 0.01888335 40.18567904 0.00576167 45.50569916 -0.01819611 C49.59436123 -0.03264704 53.6828318 -0.02805131 57.77149963 -0.01768494 C59.73311966 -0.01501571 61.69475705 -0.01829429 63.65635681 -0.02760315 C66.39767543 -0.0377571 69.13768518 -0.02228414 71.87890625 0 C73.09623192 -0.01214539 73.09623192 -0.01214539 74.33815002 -0.02453613 C77.91135961 0.02930369 80.02265594 0.2112083 82.94128418 2.35656738 C84.99800387 5.32325105 84.97232358 7.4346986 84.93945312 11.01757812 C84.95492187 12.70367187 84.95492187 12.70367187 84.97070312 14.42382812 C84.30881834 18.27833363 83.57733573 19.21105451 80.43945312 21.51757812 C77.46223493 21.91211951 74.85536081 22.06485265 71.87890625 22.03515625 C71.01667953 22.04216553 70.15445282 22.0491748 69.26609802 22.05639648 C66.417305 22.07399501 63.56950617 22.06234725 60.72070312 22.04882812 C58.74059865 22.05152251 56.76049546 22.05540448 54.78039551 22.0604248 C50.63097534 22.06632237 46.48189965 22.0577485 42.33251953 22.0390625 C37.0124698 22.0162729 31.69322721 22.02939458 26.37320709 22.05335236 C22.28454502 22.06780329 18.19607445 22.06320756 14.10740662 22.05284119 C12.14578659 22.05017196 10.1841492 22.05345054 8.22254944 22.0627594 C5.48123082 22.07291335 2.74122107 22.05744039 0 22.03515625 C-0.81155045 22.04325317 -1.62310089 22.0513501 -2.45924377 22.05969238 C-6.03245336 22.00585256 -8.14374969 21.82394795 -11.06237793 19.67858887 C-13.11909762 16.7119052 -13.09341733 14.60045765 -13.06054688 11.01757812 C-13.07601562 9.33148438 -13.07601562 9.33148438 -13.09179688 7.61132812 C-11.80763163 0.13295402 -6.59152669 -0.06576435 0 0 Z " fill="#152975" transform="translate(180.560546875,250.482421875)"/>
<path d="M0 0 C0.86368698 -0.00525696 1.72737396 -0.01051392 2.61723328 -0.01593018 C5.47612519 -0.02914898 8.33446166 -0.02038547 11.19335938 -0.01025391 C13.17728787 -0.0122741 15.16121565 -0.01518508 17.1451416 -0.01895142 C21.30467798 -0.02337732 25.46402121 -0.01693511 29.62353516 -0.00292969 C34.96040471 0.01416229 40.29682168 0.00432254 45.63367462 -0.01364708 C49.73084943 -0.0244777 53.82791659 -0.02104189 57.9250946 -0.0132637 C59.8931229 -0.0112597 61.8611609 -0.01372797 63.82917786 -0.02070236 C66.57778888 -0.02830494 69.32566275 -0.01672949 72.07421875 0 C73.2992939 -0.00910904 73.2992939 -0.00910904 74.54911804 -0.0184021 C80.02005905 0.04341769 80.02005905 0.04341769 82.53894043 1.72299194 C84.13879155 4.39193766 83.97114969 6.81598736 83.97460938 9.88818359 C83.99394531 11.03287109 84.01328125 12.17755859 84.03320312 13.35693359 C83.53710938 16.38818359 83.53710938 16.38818359 82.02966309 18.05337524 C78.47473929 19.95710231 75.09408741 19.80649847 71.16015625 19.77636719 C70.31743668 19.78162415 69.4747171 19.7868811 68.60646057 19.79229736 C65.82273792 19.80549374 63.03958778 19.79676061 60.25585938 19.78662109 C58.32059621 19.78864193 56.3853338 19.79155346 54.45007324 19.7953186 C50.39486437 19.79974146 46.33985379 19.79331208 42.28466797 19.77929688 C37.08580492 19.76220506 31.88740649 19.77204644 26.68856049 19.79001427 C22.69257098 19.8008531 18.69669168 19.7974053 14.70069885 19.78963089 C12.78373662 19.78762916 10.8667644 19.79008721 8.94981384 19.79706955 C6.2709603 19.80468562 3.59285993 19.79307776 0.9140625 19.77636719 C0.12121353 19.78243988 -0.67163544 19.78851257 -1.48851013 19.79476929 C-4.7217639 19.75739089 -7.07891358 19.59381036 -9.95544434 18.05337524 C-12.28564431 15.47933359 -11.95776608 13.28481031 -11.90039062 9.88818359 C-11.89910156 8.74349609 -11.8978125 7.59880859 -11.89648438 6.41943359 C-11.46289062 3.38818359 -11.46289062 3.38818359 -10.46472168 1.72299194 C-7.24095208 -0.42659734 -3.74702683 -0.027861 0 0 Z " fill="#FEFEFE" transform="translate(180.462890625,158.61181640625)"/>
<path d="M0 0 C1.02539383 -0.0131424 1.02539383 -0.0131424 2.07150269 -0.02655029 C4.32119068 -0.04847662 6.56889711 -0.03401699 8.81860352 -0.01708984 C10.38892492 -0.02046039 11.95924377 -0.025315 13.52955627 -0.03158569 C16.81732065 -0.03894808 20.10440472 -0.02827442 23.39208984 -0.00488281 C27.59678892 0.02358227 31.79989062 0.00721317 36.00453091 -0.02274513 C39.2466474 -0.04085608 42.48838832 -0.03504256 45.73051643 -0.02210617 C47.28019464 -0.01878136 48.82990744 -0.02282665 50.37954521 -0.03450394 C52.55081662 -0.04727425 54.71954219 -0.02775546 56.890625 0 C58.12352768 0.00397797 59.35643036 0.00795593 60.62669373 0.01205444 C65.14382871 0.85974684 66.79732323 2.3984122 70.01000977 5.64697266 C70.73657227 8.36572266 70.73657227 8.36572266 70.63500977 11.14697266 C70.62727539 12.06478516 70.61954102 12.98259766 70.61157227 13.92822266 C69.82161879 17.49840201 68.61814669 19.08303305 66.01000977 21.64697266 C62.74658203 22.28189087 62.74658203 22.28189087 58.82641602 22.29394531 C58.11049286 22.30270691 57.3945697 22.31146851 56.6569519 22.32049561 C54.29485123 22.34246908 51.93462882 22.32794649 49.57250977 22.31103516 C47.92870729 22.31440394 46.28490724 22.31925708 44.64111328 22.32553101 C41.19775656 22.33289947 37.7550488 22.32219842 34.31176758 22.29882812 C29.89948372 22.27033946 25.48872038 22.2867437 21.07649231 22.31669044 C17.68262286 22.33476467 14.2891135 22.32900503 10.89523315 22.31605148 C9.26854268 22.31271777 7.64181944 22.31680341 6.01516724 22.32844925 C3.74043291 22.34116121 1.46815496 22.32178168 -0.80639648 22.29394531 C-2.74687866 22.28797836 -2.74687866 22.28797836 -4.7265625 22.28189087 C-7.98999023 21.64697266 -7.98999023 21.64697266 -10.40356445 19.27645874 C-12.19240078 16.31147904 -12.55732209 14.58725608 -12.55249023 11.14697266 C-12.5744043 10.22916016 -12.59631836 9.31134766 -12.61889648 8.36572266 C-11.06285939 1.63900328 -6.32177646 0.02041041 0 0 Z " fill="#172B76" transform="translate(50.989990234375,178.35302734375)"/>
<path d="M0 0 C0.66 0.33 1.32 0.66 2 1 C1.6757435 1.52636425 1.35148701 2.0527285 1.01740456 2.59504318 C-0.28785218 5.68042949 -0.26251646 8.1284574 -0.2784729 11.47930908 C-0.2842653 12.12792805 -0.2900577 12.77654703 -0.29602563 13.44482112 C-0.31301667 15.61593388 -0.3159013 17.78683396 -0.31884766 19.95800781 C-0.32814647 21.51523357 -0.33831507 23.07245434 -0.34928894 24.62966919 C-0.37660836 28.85655966 -0.3917441 33.08341677 -0.40471697 37.31037235 C-0.42033901 41.728011 -0.44713218 46.14558142 -0.4727478 50.56317139 C-0.51955201 58.92826401 -0.55628817 67.29336945 -0.58942068 75.65852618 C-0.63477398 86.96253442 -0.69565242 98.2664583 -0.75566864 109.57039642 C-0.84981677 127.38022202 -0.92319822 145.1900716 -1 163 C37.61 163 76.22 163 116 163 C116 110.53 116 58.06 116 4 C116.33 4 116.66 4 117 4 C117 57.13 117 110.26 117 165 C97.385625 165.020625 77.77125 165.04125 57.5625 165.0625 C48.25720093 165.07615601 48.25720093 165.07615601 38.76391602 165.09008789 C31.21472168 165.09460449 31.21472168 165.09460449 27.68565369 165.09544373 C25.20986247 165.09698383 22.73407203 165.10051009 20.25828552 165.10557556 C16.5179615 165.11284867 12.7776835 165.11390757 9.03735352 165.11352539 C7.9261165 165.1171235 6.81487947 165.12072161 5.66996861 165.12442875 C4.66940402 165.12305125 3.66883944 165.12167376 2.63795471 165.12025452 C1.76132958 165.12117631 0.88470446 165.1220981 -0.01848507 165.12304783 C-2 165 -2 165 -3 164 C-3.10337165 161.9611274 -3.13522972 159.91862099 -3.14044189 157.87713623 C-3.14341302 157.23052481 -3.14638414 156.58391339 -3.1494453 155.91770768 C-3.15816741 153.73516467 -3.1596435 151.55267628 -3.16113281 149.37011719 C-3.1657586 147.81159853 -3.17078293 146.25308101 -3.17617798 144.69456482 C-3.18932924 140.4485564 -3.19575252 136.20256382 -3.20018864 131.9565382 C-3.20311568 129.30531538 -3.20721983 126.65409692 -3.21169281 124.00287628 C-3.22537647 115.71244569 -3.23503821 107.42202503 -3.2388947 99.13158393 C-3.24337425 89.5533959 -3.2609137 79.97535067 -3.2898953 70.39720607 C-3.31150202 63.00013839 -3.32159848 55.60311091 -3.32293582 48.20601201 C-3.32398481 43.78536452 -3.32991211 39.36485109 -3.34775543 34.94423676 C-3.36421816 30.78444464 -3.36640043 26.6248876 -3.35761642 22.46507454 C-3.35684501 20.93846317 -3.36120248 19.41183927 -3.37107468 17.88525963 C-3.38376735 15.80015862 -3.37793279 13.71589349 -3.36749268 11.63079834 C-3.36895924 10.46418545 -3.3704258 9.29757256 -3.3719368 8.09560776 C-2.96227058 4.68598032 -1.96794937 2.77875295 0 0 Z " fill="#D2D1D1" transform="translate(159,120)"/>
<path d="M0 0 C3.4121353 2.12310641 5.74948744 4.13477936 7 8 C7.49276537 12.63199447 6.87025842 15.30966775 4 19 C0.57823311 21.56632517 -2.84640421 21.36435051 -7 21 C-10.12824432 19.67918573 -11.56971762 18.68454014 -13.375 15.8125 C-14.22051827 12.00766778 -14.26058438 8.67794032 -13 5 C-9.00945226 0.43937401 -6.02109454 -0.98527002 0 0 Z " fill="#B98F74" transform="translate(357,102)"/>
<path d="M0 0 C2.81956747 -0.29685455 5.41982896 -0.39896369 8.24169922 -0.37231445 C9.09388031 -0.37596512 9.9460614 -0.37961578 10.82406616 -0.38337708 C13.65114047 -0.39150633 16.47764575 -0.37785066 19.3046875 -0.36328125 C21.26522827 -0.36276283 23.22576956 -0.36327982 25.18630981 -0.36479187 C29.30055475 -0.36470203 33.4146042 -0.35425123 37.52880859 -0.33618164 C42.80388055 -0.31352397 48.07866593 -0.31294379 53.35377312 -0.31969929 C57.40465849 -0.32304088 61.4554785 -0.31640507 65.50635147 -0.30657005 C67.45122053 -0.30271881 69.39609686 -0.30156952 71.34096909 -0.3031559 C74.0606241 -0.30352666 76.77991185 -0.29090212 79.49951172 -0.2746582 C80.70752441 -0.27837433 80.70752441 -0.27837433 81.93994141 -0.28216553 C88.98368351 -0.21500544 88.98368351 -0.21500544 92 2 C94.27149101 5.40723652 94.32490564 6.85743214 94.375 10.875 C94.40335937 11.90367187 94.43171875 12.93234375 94.4609375 13.9921875 C93.86305508 17.89362365 92.88604818 19.30170644 90 22 C86.92432652 22.48760101 84.40508006 22.65479582 81.33178711 22.59936523 C80.45820053 22.60330795 79.58461395 22.60725067 78.68455505 22.61131287 C75.79823385 22.61802347 72.91349553 22.58886163 70.02734375 22.55859375 C68.02242846 22.55434381 66.01750824 22.5520151 64.0125885 22.55152893 C59.81179492 22.54536238 55.61153431 22.52265538 51.41088867 22.48706055 C46.02141387 22.44175887 40.63242162 22.42703321 35.24277401 22.42332363 C31.10355351 22.41889886 26.96443468 22.40360223 22.82525826 22.3844471 C20.83770142 22.37555703 18.8501337 22.36883085 16.86256218 22.36428642 C14.08779463 22.35526136 11.31346711 22.33288642 8.53881836 22.30639648 C7.30207367 22.30539948 7.30207367 22.30539948 6.04034424 22.30438232 C2.17851187 22.25340112 0.28753362 22.19168908 -3 20 C-2.67 19.34 -2.34 18.68 -2 18 C-0.515 18.99 -0.515 18.99 1 20 C3.79304751 20.19469077 6.48603353 20.27295974 9.27929688 20.25878906 C10.54556664 20.26404602 10.54556664 20.26404602 11.8374176 20.26940918 C14.63127842 20.27822047 17.42488655 20.27237947 20.21875 20.265625 C22.15783741 20.26697182 24.09692449 20.2689125 26.03601074 20.27142334 C30.10135104 20.27437379 34.1666035 20.27007949 38.23193359 20.26074219 C43.44764956 20.24934772 48.66315969 20.25590761 53.8788681 20.26788712 C57.88337764 20.27510784 61.88783824 20.2728168 65.89234924 20.26763153 C67.81571985 20.26629562 69.73909488 20.26794069 71.66246033 20.27259064 C74.34866132 20.27765933 77.03452715 20.26994081 79.72070312 20.25878906 C80.51871841 20.26283752 81.3167337 20.26688599 82.13893127 20.27105713 C85.9594339 20.24161506 87.74353983 20.17097344 91 18 C91.44194203 14.94543635 91.44194203 14.94543635 91.3125 11.5 C91.30863281 10.3346875 91.30476563 9.169375 91.30078125 7.96875 C91.30414419 4.88265812 91.30414419 4.88265812 89 3 C86.10777447 2.81175514 83.3120186 2.74829754 80.41943359 2.77294922 C79.08763313 2.77251114 79.08763313 2.77251114 77.72892761 2.77206421 C74.78533253 2.77346093 71.84198853 2.78903816 68.8984375 2.8046875 C66.86105487 2.80841642 64.82367046 2.81126396 62.7862854 2.81326294 C57.41698275 2.82090896 52.04778784 2.84056575 46.67852783 2.8626709 C41.20236672 2.88310849 35.72618824 2.89226018 30.25 2.90234375 C19.49995259 2.92381074 8.74998525 2.95795834 -2 3 C-1.34 2.01 -0.68 1.02 0 0 Z " fill="#DADADA" transform="translate(172,157)"/>
<path d="M0 0 C0.66 0 1.32 0 2 0 C4.46645199 4.33348737 4.56748502 8.11089832 4 13 C2.80398096 15.81064475 1.91357367 17.34955239 -0.56286621 19.11273193 C-4.23369754 20.44914253 -7.88727864 20.27759583 -11.74414062 20.25878906 C-12.62587448 20.2622937 -13.50760834 20.26579834 -14.4160614 20.26940918 C-17.32953778 20.27820888 -20.24277117 20.27238352 -23.15625 20.265625 C-25.18119351 20.26697216 -27.2061367 20.26891311 -29.2310791 20.27142334 C-33.47455933 20.27437222 -37.71795534 20.27008451 -41.96142578 20.26074219 C-47.4023331 20.24934783 -52.8430431 20.25590856 -58.28394318 20.26788712 C-62.46520476 20.27511206 -66.64641951 20.27281485 -70.8276825 20.26763153 C-72.83395918 20.26629679 -74.84024011 20.2679366 -76.84651184 20.27259064 C-79.64974235 20.27766623 -82.45265272 20.269931 -85.25585938 20.25878906 C-86.0861113 20.26283752 -86.91636322 20.26688599 -87.77177429 20.27105713 C-91.64140027 20.24254503 -94.72631314 20.21586288 -98 18 C-94.62020581 16.31010291 -90.78446547 16.88051478 -87.06811523 16.90234375 C-85.68020279 16.90453415 -85.68020279 16.90453415 -84.26425171 16.9067688 C-82.25132657 16.91058023 -80.2384048 16.91670247 -78.22549248 16.92483521 C-75.04518336 16.93755363 -71.86491574 16.94410261 -68.68458557 16.94897461 C-61.93553847 16.96042525 -55.18652544 16.97967305 -48.4375 17 C-40.61643281 17.02354241 -32.79538503 17.04395037 -24.97429085 17.05593872 C-21.83158415 17.06245235 -18.68893638 17.07496003 -15.54624939 17.08764648 C-13.63166354 17.09127693 -11.71707713 17.09462892 -9.80249023 17.09765625 C-8.92090744 17.10282257 -8.03932465 17.10798889 -7.13102722 17.11331177 C-5.08700249 17.11349238 -3.04307018 17.06246098 -1 17 C0.41774838 15.81147145 0.41774838 15.81147145 0.09765625 12.40234375 C0.0909822 10.91403133 0.07902183 9.42573568 0.0625 7.9375 C0.05798828 7.17888672 0.05347656 6.42027344 0.04882812 5.63867188 C0.0370068 3.75908129 0.01907078 1.87953101 0 0 Z " fill="#DDDDDD" transform="translate(403,160)"/>
<path d="M0 0 C1.65 0 3.3 0 5 0 C5.33 0.99 5.66 1.98 6 3 C6.58007812 2.855625 7.16015625 2.71125 7.7578125 2.5625 C12.26659675 1.49110572 16.33054247 0.76054064 21 1 C21 0.67 21 0.34 21 0 C22.65 0 24.3 0 26 0 C26 0.66 26 1.32 26 2 C27.32 2.33 28.64 2.66 30 3 C30 4.32 30 5.64 30 7 C20.1 7 10.2 7 0 7 C0 4.69 0 2.38 0 0 Z " fill="#D4D4D4" transform="translate(44,12)"/>
<path d="M0 0 C1.32 0 2.64 0 4 0 C4 4.95 4 9.9 4 15 C4.66 15 5.32 15 6 15 C6.66 11.37 7.32 7.74 8 4 C8.33 4 8.66 4 9 4 C9.33 7.96 9.66 11.92 10 16 C6.28986601 18.47342266 4.38939738 18.38503486 0 18 C-2.4375 16.9375 -2.4375 16.9375 -4 15 C-4.74455522 9.46901835 -3.41997286 5.83994573 -1 1 C-0.67 0.67 -0.34 0.34 0 0 Z " fill="#362A22" transform="translate(350,105)"/>
<path d="M0 0 C0.61488281 0.08378906 1.22976562 0.16757813 1.86328125 0.25390625 C3.07564453 0.40666016 3.07564453 0.40666016 4.3125 0.5625 C5.11300781 0.66691406 5.91351563 0.77132812 6.73828125 0.87890625 C9.16817116 1.14755178 9.16817116 1.14755178 12 0 C12 0.66 12 1.32 12 2 C13.32 2 14.64 2 16 2 C16 1.34 16 0.68 16 0 C18.31 0.33 20.62 0.66 23 1 C23.5625 2.9375 23.5625 2.9375 24 5 C23 6 23 6 20.77514648 6.11352539 C19.81680908 6.10828857 18.85847168 6.10305176 17.87109375 6.09765625 C16.31938477 6.09282227 16.31938477 6.09282227 14.73632812 6.08789062 C13.64771484 6.07951172 12.55910156 6.07113281 11.4375 6.0625 C9.7987793 6.05573242 9.7987793 6.05573242 8.12695312 6.04882812 C5.41791505 6.03699826 2.70898401 6.02051543 0 6 C0 4.02 0 2.04 0 0 Z " fill="#9B9999" transform="translate(76,98)"/>
<path d="M0 0 C5.26053037 -0.31563182 8.44573816 0.33409063 13 3 C12.67 4.32 12.34 5.64 12 7 C6.06 7 0.12 7 -6 7 C-6 5.68 -6 4.36 -6 3 C-6.66 3 -7.32 3 -8 3 C-8.33 4.32 -8.66 5.64 -9 7 C-9 5.35 -9 3.7 -9 2 C-6.03 2 -3.06 2 0 2 C0 1.34 0 0.68 0 0 Z " fill="#D4D4D4" transform="translate(311,12)"/>
<path d="M0 0 C0.66 0 1.32 0 2 0 C2.66 0.66 3.32 1.32 4 2 C6.01954441 1.66179847 6.01954441 1.66179847 8 1 C8.66 1 9.32 1 10 1 C10 2.65 10 4.3 10 6 C2.74 6 -4.52 6 -12 6 C-12 4.35 -12 2.7 -12 1 C-11.21753906 1.01160156 -10.43507813 1.02320313 -9.62890625 1.03515625 C-8.61699219 1.04417969 -7.60507813 1.05320313 -6.5625 1.0625 C-5.04849609 1.07990234 -5.04849609 1.07990234 -3.50390625 1.09765625 C-1.05978933 1.28612676 -1.05978933 1.28612676 0 0 Z " fill="#ABABAE" transform="translate(83,144)"/>
<path d="M0 0 C3.3 0.33 6.6 0.66 10 1 C10 2.65 10 4.3 10 6 C7.20826945 6.02690104 4.41679652 6.04679053 1.625 6.0625 C0.43390625 6.07506836 0.43390625 6.07506836 -0.78125 6.08789062 C-6.7734375 6.11328125 -6.7734375 6.11328125 -9 5 C-9 4.34 -9 3.68 -9 3 C-9.66 3 -10.32 3 -11 3 C-11.33 3.66 -11.66 4.32 -12 5 C-12 3.68 -12 2.36 -12 1 C-11.319375 1.165 -10.63875 1.33 -9.9375 1.5 C-6.5835178 2.07089059 -3.39610195 2.06659023 0 2 C0 1.34 0 0.68 0 0 Z " fill="#C8C8C9" transform="translate(83,119)"/>
<path d="M0 0 C0.680625 0.185625 1.36125 0.37125 2.0625 0.5625 C5.06280661 1.15612701 5.06280661 1.15612701 8.3125 0.5 C12.53823537 -0.07298107 15.8060374 0.33779538 20 1 C20 2.32 20 3.64 20 5 C17.41718164 5.22224251 14.83477813 5.42823488 12.25 5.625 C11.52039063 5.68945312 10.79078125 5.75390625 10.0390625 5.8203125 C6.14088264 6.10381649 3.29354678 6.27081383 0 4 C0 2.68 0 1.36 0 0 Z " fill="#646F9A" transform="translate(334,261)"/>
<path d="M0 0 C0.66 0 1.32 0 2 0 C2.66 0.99 3.32 1.98 4 3 C5.32 2.67 6.64 2.34 8 2 C8 1.34 8 0.68 8 0 C8.66 0 9.32 0 10 0 C10 0.66 10 1.32 10 2 C11.32 2 12.64 2 14 2 C14.33 1.34 14.66 0.68 15 0 C15 2.31 15 4.62 15 7 C9.39 7 3.78 7 -2 7 C-1 1 -1 1 0 0 Z " fill="#D5D5D5" transform="translate(160,12)"/>
<path d="M0 0 C1.52519276 0.08937803 3.04681929 0.24537146 4.5625 0.4375 C5.38878906 0.53933594 6.21507812 0.64117187 7.06640625 0.74609375 C7.70449219 0.82988281 8.34257812 0.91367188 9 1 C9.33 2.65 9.66 4.3 10 6 C5.05 6 0.1 6 -5 6 C-5 5.01 -5 4.02 -5 3 C-5.66 3 -6.32 3 -7 3 C-7.33 3.66 -7.66 4.32 -8 5 C-8 4.01 -8 3.02 -8 2 C-6.865625 1.855625 -5.73125 1.71125 -4.5625 1.5625 C-1.19222799 1.38828522 -1.19222799 1.38828522 0 0 Z " fill="#939090" transform="translate(316,91)"/>
<path d="M0 0 C1.19625 0.185625 2.3925 0.37125 3.625 0.5625 C7.29633478 1.0376905 10.35390796 0.69449372 14 0 C14.66 0.33 15.32 0.66 16 1 C15.67 2.32 15.34 3.64 15 5 C11.84493858 5.93619813 9.03413498 6.1057123 5.75 6.0625 C4.85796875 6.05347656 3.9659375 6.04445313 3.046875 6.03515625 C2.37140625 6.02355469 1.6959375 6.01195313 1 6 C0.67 4.02 0.34 2.04 0 0 Z " fill="#8C8786" transform="translate(58,98)"/>
<path d="M0 0 C2.13586678 3.20380017 2.23132175 4.01939967 2.125 7.6875 C2.10695313 8.49574219 2.08890625 9.30398437 2.0703125 10.13671875 C2.03550781 11.05904297 2.03550781 11.05904297 2 12 C2.66 12 3.32 12 4 12 C4.66 8.37 5.32 4.74 6 1 C6.33 1 6.66 1 7 1 C7.33 4.96 7.66 8.92 8 13 C4.3558226 15.4294516 2.28758728 15.16179575 -2 15 C-1.34 14.67 -0.68 14.34 0 14 C0 12.68 0 11.36 0 10 C-0.66 10 -1.32 10 -2 10 C-2.22036864 6.14354879 -1.60355101 3.50776784 0 0 Z " fill="#8B7162" transform="translate(352,108)"/>
<path d="M0 0 C1.9375 1.5 1.9375 1.5 3 3 C2.01 4.485 2.01 4.485 1 6 C-0.5 4.625 -0.5 4.625 -2 3 C-2 2.34 -2 1.68 -2 1 C-3.65 1.33 -5.3 1.66 -7 2 C-8.92471317 7.33835539 -10.39891424 12.34979382 -11 18 C-13.8293078 15.1706922 -13.73345379 12.93155659 -14 9 C-13.22106448 5.65057724 -12.18070365 4.19102957 -9.8125 1.6875 C-6.25026004 -0.44984397 -4.08965199 -0.53014007 0 0 Z " fill="#D1A282" transform="translate(357,102)"/>
<path d="M0 0 C2.24973447 -0.054138 4.49984383 -0.09285491 6.75 -0.125 C8.00296875 -0.14820313 9.2559375 -0.17140625 10.546875 -0.1953125 C13.72820492 -0.01537302 15.36521896 0.31001418 18 2 C17.67 2.99 17.34 3.98 17 5 C14.72923158 5.02699725 12.45837179 5.04639453 10.1875 5.0625 C8.29064453 5.07990234 8.29064453 5.07990234 6.35546875 5.09765625 C3 5 3 5 0 4 C0 2.68 0 1.36 0 0 Z " fill="#66719B" transform="translate(357,261)"/>
<path d="M0 0 C2.05078125 0.29296875 4.1015625 0.5859375 6.15234375 0.87890625 C6.76207031 0.91886719 7.37179688 0.95882812 8 1 C8.33 0.67 8.66 0.34 9 0 C16.29411765 -0.23529412 16.29411765 -0.23529412 20 1 C20 1.99 20 2.98 20 4 C17.41703983 4.19522373 14.83395921 4.38144403 12.25 4.5625 C11.52039063 4.61857422 10.79078125 4.67464844 10.0390625 4.73242188 C6.45046349 4.97709908 3.44972775 4.99666259 0 4 C0 2.68 0 1.36 0 0 Z " fill="#7D85A5" transform="translate(61,188)"/>
<path d="M0 0 C0.69738281 0.05220703 1.39476562 0.10441406 2.11328125 0.15820312 C3.82596203 0.28724072 5.53805066 0.42409614 7.25 0.5625 C7.25 1.8825 7.25 3.2025 7.25 4.5625 C0.98 4.5625 -5.29 4.5625 -11.75 4.5625 C-11.75 3.2425 -11.75 1.9225 -11.75 0.5625 C-7.84519751 -0.79612973 -4.0398224 -0.33219712 0 0 Z " fill="#E7E7E7" transform="translate(340.75,167.4375)"/>
<path d="M0 0 C0.66 0 1.32 0 2 0 C2.33 0.66 2.66 1.32 3 2 C3.66 2.33 4.32 2.66 5 3 C5 4.32 5 5.64 5 7 C0.05 7 -4.9 7 -10 7 C-10 5.35 -10 3.7 -10 2 C-7.525 2.495 -7.525 2.495 -5 3 C-5 3.99 -5 4.98 -5 6 C-4.67 4.68 -4.34 3.36 -4 2 C-2.68 2 -1.36 2 0 2 C0 1.34 0 0.68 0 0 Z " fill="#D1D1D1" transform="translate(195,12)"/>
<path d="M0 0 C1.65 0 3.3 0 5 0 C5 0.66 5 1.32 5 2 C5.62648437 1.91621094 6.25296875 1.83242187 6.8984375 1.74609375 C7.71570313 1.64425781 8.53296875 1.54242188 9.375 1.4375 C10.18710938 1.33308594 10.99921875 1.22867188 11.8359375 1.12109375 C14 1 14 1 16 2 C16 3.32 16 4.64 16 6 C11.38 6 6.76 6 2 6 C2 4.68 2 3.36 2 2 C1.34 2 0.68 2 0 2 C0 1.34 0 0.68 0 0 Z " fill="#746F6D" transform="translate(185,141)"/>
<path d="M0 0 C0.680625 0.185625 1.36125 0.37125 2.0625 0.5625 C5.57232191 1.08523943 8.52188063 0.61378577 12 0 C12 1.98 12 3.96 12 6 C8.04 6 4.08 6 0 6 C0 4.02 0 2.04 0 0 Z " fill="#9F9EA1" transform="translate(94,144)"/>
<path d="M0 0 C1.051875 0.185625 2.10375 0.37125 3.1875 0.5625 C6.57119882 0.95079331 8.76425888 0.88247485 12 0 C12 1.98 12 3.96 12 6 C8.04 6 4.08 6 0 6 C0 4.02 0 2.04 0 0 Z " fill="#A2A0A2" transform="translate(94,119)"/>
<path d="M0 0 C0.66 0 1.32 0 2 0 C2.33 0.66 2.66 1.32 3 2 C3.33 1.34 3.66 0.68 4 0 C6.97 0 9.94 0 13 0 C13 1.65 13 3.3 13 5 C8.71 5 4.42 5 0 5 C0 3.35 0 1.7 0 0 Z " fill="#A3A3A8" transform="translate(73,153)"/>
<path d="M0 0 C3.09477914 0 6.10446346 0.23479256 9.1875 0.5 C10.27417969 0.5928125 11.36085937 0.685625 12.48046875 0.78125 C13.31191406 0.8534375 14.14335937 0.925625 15 1 C14.67 2.32 14.34 3.64 14 5 C9.33333333 5 4.66666667 5 0 5 C0 3.35 0 1.7 0 0 Z " fill="#6C6765" transform="translate(168,142)"/>
<path d="M0 0 C6.625 -0.125 6.625 -0.125 10 1 C12.63804589 0.60602665 12.63804589 0.60602665 15 0 C15.33 1.32 15.66 2.64 16 4 C13.7089095 4.19441368 11.41709663 4.38033135 9.125 4.5625 C7.21074219 4.71912109 7.21074219 4.71912109 5.2578125 4.87890625 C2 5 2 5 0 4 C0 2.68 0 1.36 0 0 Z " fill="#9E9EA1" transform="translate(55,154)"/>
<path d="M0 0 C0.33 0.99 0.66 1.98 1 3 C-1.12510212 3 -3.25026217 2.976847 -5.375 2.9375 C-8.88543984 2.88973628 -8.88543984 2.88973628 -11.8125 3.5625 C-14 4 -14 4 -16 3 C-16 2.01 -16 1.02 -16 0 C-15.06027344 0.01740234 -15.06027344 0.01740234 -14.1015625 0.03515625 C-12.87566406 0.04869141 -12.87566406 0.04869141 -11.625 0.0625 C-10.40683594 0.07990234 -10.40683594 0.07990234 -9.1640625 0.09765625 C-1.12028302 -0.26533019 -1.12028302 -0.26533019 0 0 Z " fill="#E4E4E5" transform="translate(205,199)"/>
<path d="M0 0 C2.70453851 2.58694988 3.90897461 3.97596439 4.25 7.8125 C3.97212427 11.35541555 3.02619474 13.12955745 1 16 C0.34 15.34 -0.32 14.68 -1 14 C-0.9765625 10.7421875 -0.9765625 10.7421875 -0.625 6.875 C-0.51414062 5.59367187 -0.40328125 4.31234375 -0.2890625 2.9921875 C-0.19367188 2.00476563 -0.09828125 1.01734375 0 0 Z " fill="#CFC9C6" transform="translate(360,105)"/>
<path d="M0 0 C4.29 0 8.58 0 13 0 C13.33 1.32 13.66 2.64 14 4 C12.41676312 4.027193 10.83338938 4.04648306 9.25 4.0625 C7.92742188 4.07990234 7.92742188 4.07990234 6.578125 4.09765625 C4.2181162 4.00826198 2.25501476 3.66912821 0 3 C0 2.01 0 1.02 0 0 Z " fill="#E4E4E4" transform="translate(39,137)"/>
<path d="M0 0 C1.62490954 -0.02698189 3.24994633 -0.04638757 4.875 -0.0625 C5.77992187 -0.07410156 6.68484375 -0.08570313 7.6171875 -0.09765625 C10 0 10 0 12 1 C12 1.99 12 2.98 12 4 C8.04 4 4.08 4 0 4 C0 2.68 0 1.36 0 0 Z " fill="#566392" transform="translate(84,188)"/>
<path d="M0 0 C0.66 0 1.32 0 2 0 C2.33 1.65 2.66 3.3 3 5 C0.66666667 5 -1.66666667 5 -4 5 C-4.99 5.33 -5.98 5.66 -7 6 C-7.66 5.67 -8.32 5.34 -9 5 C-9 4.34 -9 3.68 -9 3 C-9.66 3 -10.32 3 -11 3 C-11.33 3.66 -11.66 4.32 -12 5 C-12 3.68 -12 2.36 -12 1 C-11.319375 1.165 -10.63875 1.33 -9.9375 1.5 C-6.5835178 2.07089059 -3.39610195 2.06659023 0 2 C0 1.34 0 0.68 0 0 Z " fill="#9D9C9F" transform="translate(83,119)"/>
<path d="M0 0 C1.62490954 -0.02698189 3.24994633 -0.04638757 4.875 -0.0625 C5.77992188 -0.07410156 6.68484375 -0.08570313 7.6171875 -0.09765625 C10 0 10 0 12 1 C12 1.99 12 2.98 12 4 C7.66726186 4.92844389 4.33273814 4.92844389 0 4 C0 2.68 0 1.36 0 0 Z " fill="#6F799F" transform="translate(219,260)"/>
<path d="M0 0 C4.47427924 -0.08948558 8.60563789 0.14256349 13 1 C13 1.99 13 2.98 13 4 C12.2575 3.979375 11.515 3.95875 10.75 3.9375 C8.27650346 3.99371583 6.36793801 4.36854986 4 5 C2.66666667 5 1.33333333 5 0 5 C0 3.35 0 1.7 0 0 Z " fill="#A1A1A3" transform="translate(55,145)"/>
<path d="M0 0 C2.31 0.33 4.62 0.66 7 1 C7.33 2.32 7.66 3.64 8 5 C4 5 0 5 -4 5 C-3.67 4.01 -3.34 3.02 -3 2 C-2.01 2 -1.02 2 0 2 C0 1.34 0 0.68 0 0 Z " fill="#787474" transform="translate(92,98)"/>
<path d="M0 0 C3.63 0 7.26 0 11 0 C11 1.32 11 2.64 11 4 C6.66726186 4.92844389 3.33273814 4.92844389 -1 4 C-0.67 2.68 -0.34 1.36 0 0 Z " fill="#777FA2" transform="translate(205,260)"/>
<path d="M0 0 C0.99 0.33 1.98 0.66 3 1 C5.3406065 0.72230092 7.67624308 0.39460023 10 0 C10.33 1.32 10.66 2.64 11 4 C9.741875 4.185625 8.48375 4.37125 7.1875 4.5625 C6.12595703 4.71912109 6.12595703 4.71912109 5.04296875 4.87890625 C3 5 3 5 0 4 C0 2.68 0 1.36 0 0 Z " fill="#E7E7E7" transform="translate(176,198)"/>
<path d="M0 0 C4.29 0 8.58 0 13 0 C13 0.99 13 1.98 13 3 C11.7934375 2.9690625 11.7934375 2.9690625 10.5625 2.9375 C8.06645115 2.70366379 8.06645115 2.70366379 7 4 C2.46511628 4.23255814 2.46511628 4.23255814 0 3 C0 2.01 0 1.02 0 0 Z " fill="#9C9B9E" transform="translate(55,121)"/>
<path d="M0 0 C2.66666667 0.66666667 5.33333333 1.33333333 8 2 C8 3.32 8 4.64 8 6 C5.36 6 2.72 6 0 6 C0 4.02 0 2.04 0 0 Z " fill="#9A9A9C" transform="translate(40,119)"/>
<path d="M0 0 C3.62528568 -0.20140476 5.86501708 0.14223235 9 2 C8.67 2.99 8.34 3.98 8 5 C5.03 4.67 2.06 4.34 -1 4 C-0.67 2.68 -0.34 1.36 0 0 Z " fill="#737C9F" transform="translate(366,261)"/>
<path d="M0 0 C1.9375 0.3125 1.9375 0.3125 4 1 C4.33 1.99 4.66 2.98 5 4 C5.66 4 6.32 4 7 4 C7.33 3.34 7.66 2.68 8 2 C8 3.32 8 4.64 8 6 C5.36 6 2.72 6 0 6 C0 4.02 0 2.04 0 0 Z " fill="#969598" transform="translate(40,144)"/>
<path d="M0 0 C2.97 0.33 5.94 0.66 9 1 C9 1.99 9 2.98 9 4 C5.37 3.67 1.74 3.34 -2 3 C-1.34 2.67 -0.68 2.34 0 2 C0 1.34 0 0.68 0 0 Z " fill="#6C769F" transform="translate(72,188)"/>
<path d="M0 0 C2.64 0 5.28 0 8 0 C8.33 1.32 8.66 2.64 9 4 C6.03 4 3.06 4 0 4 C0 2.68 0 1.36 0 0 Z " fill="#DFDFDF" transform="translate(40,112)"/>
<path d="M0 0 C0.99 0.495 0.99 0.495 2 1 C3.99021521 0.90276549 3.99021521 0.90276549 6.125 0.5625 C7.40375 0.376875 8.6825 0.19125 10 0 C10 1.32 10 2.64 10 4 C6.7 3.67 3.4 3.34 0 3 C0 2.01 0 1.02 0 0 Z " fill="#7882A5" transform="translate(344,262)"/>
<path d="M0 0 C1.98 0 3.96 0 6 0 C6 1.65 6 3.3 6 5 C4.02 5 2.04 5 0 5 C0 3.35 0 1.7 0 0 Z " fill="#A9A8AB" transform="translate(108,145)"/>
<path d="M0 0 C0.33 0 0.66 0 1 0 C1 1.65 1 3.3 1 5 C-0.98 5.33 -2.96 5.66 -5 6 C-5 5.01 -5 4.02 -5 3 C-5.66 3 -6.32 3 -7 3 C-7.33 3.66 -7.66 4.32 -8 5 C-8 4.01 -8 3.02 -8 2 C-6.865625 1.855625 -5.73125 1.71125 -4.5625 1.5625 C-1.19222799 1.38828522 -1.19222799 1.38828522 0 0 Z " fill="#6D6764" transform="translate(316,91)"/>
<path d="M0 0 C1.65 0 3.3 0 5 0 C5 0.66 5 1.32 5 2 C6.65 2 8.3 2 10 2 C10 2.66 10 3.32 10 4 C6.7 3.67 3.4 3.34 0 3 C0 2.01 0 1.02 0 0 Z " fill="#EAEAEB" transform="translate(182,167)"/>
<path d="M0 0 C1.9375 0.3125 1.9375 0.3125 4 1 C4.33 1.99 4.66 2.98 5 4 C5.66 4 6.32 4 7 4 C7.33 3.34 7.66 2.68 8 2 C8 2.99 8 3.98 8 5 C5.36 5 2.72 5 0 5 C0 3.35 0 1.7 0 0 Z " fill="#939293" transform="translate(40,153)"/>
<path d="M0 0 C0.33 0 0.66 0 1 0 C1.33 3.96 1.66 7.92 2 12 C0.35 12.33 -1.3 12.66 -3 13 C-2.690625 12.34 -2.38125 11.68 -2.0625 11 C-0.75039745 7.29523985 -0.39735865 3.90736009 0 0 Z " fill="#66564D" transform="translate(358,109)"/>
<path d="M0 0 C1.98 0 3.96 0 6 0 C6 1.65 6 3.3 6 5 C4.02 5 2.04 5 0 5 C0 3.35 0 1.7 0 0 Z " fill="#D0CFCF" transform="translate(61,14)"/>
<path d="M0 0 C1.32 0 2.64 0 4 0 C4 1.98 4 3.96 4 6 C2.68 6 1.36 6 0 6 C-0.38218767 4.34385343 -0.71395102 2.67542976 -1 1 C-0.67 0.67 -0.34 0.34 0 0 Z " fill="#C0C0C3" transform="translate(102,144)"/>
<path d="M0 0 C0.66 0 1.32 0 2 0 C2.33 0.66 2.66 1.32 3 2 C3.33 1.34 3.66 0.68 4 0 C4.66 0 5.32 0 6 0 C6 1.65 6 3.3 6 5 C4.02 5 2.04 5 0 5 C0 3.35 0 1.7 0 0 Z " fill="#8D8C8E" transform="translate(73,153)"/>
<path d="M0 0 C3.3 0 6.6 0 10 0 C9.34 1.32 8.68 2.64 8 4 C5.36 3.34 2.72 2.68 0 2 C0 1.34 0 0.68 0 0 Z " fill="#DFDFDF" transform="translate(318,140)"/>
<path d="M0 0 C1.32 0 2.64 0 4 0 C4 1.98 4 3.96 4 6 C2.68 6 1.36 6 0 6 C0 4.02 0 2.04 0 0 Z " fill="#C0C0C2" transform="translate(102,119)"/>
<path d="M0 0 C1.5625 1.25 1.5625 1.25 3 3 C2.7181953 5.32488881 2.04553582 6.90892835 1 9 C0.34 9 -0.32 9 -1 9 C-1.125 2.25 -1.125 2.25 0 0 Z " fill="#CBA081" transform="translate(355,111)"/>
<path d="M0 0 C0.66 0 1.32 0 2 0 C2 0.66 2 1.32 2 2 C2.99 2 3.98 2 5 2 C5 2.66 5 3.32 5 4 C4.01 4.33 3.02 4.66 2 5 C1.67 5.66 1.34 6.32 1 7 C0.01 6.01 -0.98 5.02 -2 4 C-1.34 2.68 -0.68 1.36 0 0 Z " fill="#DBDBDB" transform="translate(42,82)"/>
<path d="M0 0 C2.475 0.495 2.475 0.495 5 1 C5 2.32 5 3.64 5 5 C3.35 5 1.7 5 0 5 C0 3.35 0 1.7 0 0 Z " fill="#AEADB0" transform="translate(71,145)"/>
<path d="M0 0 C0.33 0 0.66 0 1 0 C1 3.3 1 6.6 1 10 C0.01 10 -0.98 10 -2 10 C-2.22036864 6.14354879 -1.60355101 3.50776784 0 0 Z " fill="#765E51" transform="translate(352,108)"/>
<path d="M0 0 C0.66 0 1.32 0 2 0 C3.38125018 2.76250036 3.19079306 4.94731099 3 8 C2.34 8.66 1.68 9.32 1 10 C-0.1577506 6.52674819 -0.06866652 3.63932552 0 0 Z " fill="#B8B1AE" transform="translate(361,108)"/>
<path d="M0 0 C0.66 0 1.32 0 2 0 C2.33 0.66 2.66 1.32 3 2 C3.66 2.33 4.32 2.66 5 3 C5 3.99 5 4.98 5 6 C2 7 2 7 0 7 C0 4.69 0 2.38 0 0 Z " fill="#CECECE" transform="translate(36,12)"/>
<path d="M0 0 C0.66 0 1.32 0 2 0 C2.33 1.98 2.66 3.96 3 6 C1.35 6.33 -0.3 6.66 -2 7 C-1.125 1.125 -1.125 1.125 0 0 Z " fill="#CDCCCC" transform="translate(160,12)"/>
<path d="M0 0 C3.19902639 -0.08886184 5.92677456 0.08941469 9 1 C9 1.66 9 2.32 9 3 C6.03 3 3.06 3 0 3 C0 2.01 0 1.02 0 0 Z " fill="#838AA8" transform="translate(87,189)"/>
<path d="M0 0 C6.52307692 -0.36923077 6.52307692 -0.36923077 8.9375 1.5 C9.288125 1.995 9.63875 2.49 10 3 C9.01 4.485 9.01 4.485 8 6 C6.5 4.625 6.5 4.625 5 3 C5 2.34 5 1.68 5 1 C3.35 1 1.7 1 0 1 C0 0.67 0 0.34 0 0 Z " fill="#D1C4BC" transform="translate(350,102)"/>
<path d="M0 0 C2.31 0 4.62 0 7 0 C7 0.99 7 1.98 7 3 C4.69 3 2.38 3 0 3 C0 2.01 0 1.02 0 0 Z " fill="#E5E5E5" transform="translate(317,168)"/>
<path d="M0 0 C1.98 0.66 3.96 1.32 6 2 C6 2.66 6 3.32 6 4 C4.68 4 3.36 4 2 4 C1.67 4.66 1.34 5.32 1 6 C0.34 5.34 -0.32 4.68 -1 4 C-0.625 1.875 -0.625 1.875 0 0 Z " fill="#D7D7D7" transform="translate(306,37)"/>
<path d="M0 0 C1.65 0 3.3 0 5 0 C5 1.65 5 3.3 5 5 C2.03 4.505 2.03 4.505 -1 4 C-0.67 2.68 -0.34 1.36 0 0 Z " fill="#9A999C" transform="translate(88,145)"/>
<path d="M0 0 C1.9375 0.3125 1.9375 0.3125 4 1 C4.33 1.99 4.66 2.98 5 4 C5.66 4.33 6.32 4.66 7 5 C2.25 5.125 2.25 5.125 0 4 C0 2.68 0 1.36 0 0 Z " fill="#ACABAD" transform="translate(55,154)"/>
<path d="M0 0 C2.64 0.33 5.28 0.66 8 1 C8 1.99 8 2.98 8 4 C4.28400809 4.20086443 3.22791555 4.1519437 0 2 C0 1.34 0 0.68 0 0 Z " fill="#979699" transform="translate(60,145)"/>
<path d="M0 0 C1.65 0 3.3 0 5 0 C5 1.98 5 3.96 5 6 C4.01 6 3.02 6 2 6 C2 4.68 2 3.36 2 2 C1.34 2 0.68 2 0 2 C0 1.34 0 0.68 0 0 Z " fill="#999594" transform="translate(185,141)"/>
<path d="M0 0 C2.31 0.33 4.62 0.66 7 1 C7 2.32 7 3.64 7 5 C5.68 4.67 4.36 4.34 3 4 C3 3.34 3 2.68 3 2 C2.34 2 1.68 2 1 2 C0.67 2.66 0.34 3.32 0 4 C0 2.68 0 1.36 0 0 Z " fill="#8D8C8E" transform="translate(71,120)"/>
<path d="M0 0 C0.99 0 1.98 0 3 0 C3 1.32 3 2.64 3 4 C3.99 4.33 4.98 4.66 6 5 C5.01 5.495 5.01 5.495 4 6 C1.875 5.0625 1.875 5.0625 0 4 C0 2.68 0 1.36 0 0 Z " fill="#525F8F" transform="translate(334,261)"/>
<path d="M0 0 C1.66666667 0 3.33333333 0 5 0 C5 1.65 5 3.3 5 5 C3.35 5 1.7 5 0 5 C0 3.35 0 1.7 0 0 Z " fill="#919091" transform="translate(49,153)"/>
<path d="M0 0 C1.32 0 2.64 0 4 0 C4 1.32 4 2.64 4 4 C2.68 4.33 1.36 4.66 0 5 C0 3.35 0 1.7 0 0 Z " fill="#716C69" transform="translate(303,91)"/>
<path d="M0 0 C1.98 0.495 1.98 0.495 4 1 C3.67 2.32 3.34 3.64 3 5 C1.68 5 0.36 5 -1 5 C-0.67 3.35 -0.34 1.7 0 0 Z " fill="#CECECE" transform="translate(320,14)"/>
<path d="M0 0 C2.31 0.33 4.62 0.66 7 1 C7 1.66 7 2.32 7 3 C4.69 3 2.38 3 0 3 C0 2.01 0 1.02 0 0 Z " fill="#DCDCDC" transform="translate(39,137)"/>
<path d="M0 0 C1.65 0 3.3 0 5 0 C5 1.65 5 3.3 5 5 C3.35 5 1.7 5 0 5 C0 3.35 0 1.7 0 0 Z " fill="#BBBBBE" transform="translate(258,129)"/>
<path d="M0 0 C0 1.65 0 3.3 0 5 C-0.61875 4.649375 -1.2375 4.29875 -1.875 3.9375 C-2.57625 3.628125 -3.2775 3.31875 -4 3 C-4.99 3.495 -4.99 3.495 -6 4 C-6 3.01 -6 2.02 -6 1 C-3.92446352 0.4465236 -2.15634036 0 0 0 Z " fill="#979699" transform="translate(93,120)"/>
<path d="M0 0 C-0.33 1.32 -0.66 2.64 -1 4 C-2.65 4 -4.3 4 -6 4 C-6 3.01 -6 2.02 -6 1 C-3.92446352 0.4465236 -2.15634036 0 0 0 Z " fill="#645D59" transform="translate(87,99)"/>
<path d="M0 0 C1.32 0.66 2.64 1.32 4 2 C4 2.66 4 3.32 4 4 C2.68 4.33 1.36 4.66 0 5 C-0.5625 3.0625 -0.5625 3.0625 -1 1 C-0.67 0.67 -0.34 0.34 0 0 Z " fill="#DCDCDC" transform="translate(59,14)"/>
</svg>
